<?xml version="1.0" standalone="no"?>
<!DOCTYPE svg PUBLIC "-//W3C//DTD SVG 1.1//EN" "http://www.w3.org/Graphics/SVG/1.1/DTD/svg11.dtd" >
<svg xmlns="http://www.w3.org/2000/svg">
<metadata></metadata>
<defs>
<font id="juteregular" horiz-adv-x="763" >
<font-face units-per-em="2048" ascent="1638" descent="-410" />
<missing-glyph horiz-adv-x="327" />
<glyph horiz-adv-x="0" />
<glyph unicode="&#xd;" horiz-adv-x="0" />
<glyph unicode=" "  horiz-adv-x="327" />
<glyph unicode="&#x09;" horiz-adv-x="327" />
<glyph unicode="&#xa0;" horiz-adv-x="327" />
<glyph unicode="!" horiz-adv-x="436" d="M109 0v219h219v-219h-219zM109 328v1310h219v-1310h-219z" />
<glyph unicode="&#x22;" d="M109 1638h219l-66 -436h-88zM436 1638h219l-65 -436h-88z" />
<glyph unicode="#" horiz-adv-x="874" d="M109 655v109h110v219h-110v111h110v108h109v-108h219v108h108v-108h109v-111h-109v-219h109v-109h-109v-108h-108v108h-219v-108h-109v108h-110zM328 764h219v219h-219v-219z" />
<glyph unicode="$" d="M109 219v217h274q53 0 53 56v219q0 53 -53 53h-111q-68 0 -115.5 48t-47.5 116v438q0 68 48 116t115 48v108h220v-108h163v-219h-272q-55 0 -55 -54v-219q0 -55 55 -55h109q68 0 115.5 -48t47.5 -116v-436q0 -68 -48 -116t-115 -48v-219h-220v219h-163z" />
<glyph unicode="%" horiz-adv-x="1071" d="M109 1235v262q0 68 48 116t115 48q70 0 117 -48t47 -116v-262q0 -68 -47 -116t-117 -48q-68 0 -115.5 48t-47.5 116zM219 1235q0 -55 53 -55q56 0 56 55v262q0 55 -56 55q-53 0 -53 -55v-262zM305 0l328 1638h131l-328 -1638h-131zM633 141v262q0 70 48 117t116 47 q70 0 117 -47t47 -117v-262q0 -68 -47.5 -116t-116.5 -48q-68 0 -116 48.5t-48 115.5zM743 141q0 -53 54 -53q55 0 55 53v262q0 55 -55 56q-53 0 -54 -56v-262z" />
<glyph unicode="&#x26;" d="M109 164v567q0 96 81 143q-82 47 -81 142v459q0 68 48 115.5t115 47.5h383v-217h-272q-55 0 -55 -55v-328q0 -55 55 -55h381v-219h-109v-600q0 -68 -48 -116t-115 -48h-220q-68 0 -115.5 48t-47.5 116zM328 272q0 -53 55 -53q53 0 53 53v492h-53q-55 0 -55 -53v-439z" />
<glyph unicode="'" horiz-adv-x="327" d="M55 1638h217l-65 -436h-86z" />
<glyph unicode="(" horiz-adv-x="546" d="M109 -55v1749q0 68 48 116t115 48h164v-220h-53q-55 0 -55 -53v-1530q0 -55 55 -55h53v-219h-164q-68 0 -115.5 48t-47.5 116z" />
<glyph unicode=")" horiz-adv-x="546" d="M109 0h55q55 0 55 55v1530q0 53 -55 53h-55v220h163q70 0 117 -48.5t47 -115.5v-1749q0 -68 -47 -116t-117 -48h-163v219z" />
<glyph unicode="*" horiz-adv-x="958" d="M109 1165l102 103l158 55l-156 53l-104 105l155 153l39 -39l66 -110v153h219v-147l61 104l45 45l154 -153l-109 -111l-151 -53l153 -55l107 -109l-154 -153l-45 43l-61 106v-172h-219v176l-68 -110l-37 -37z" />
<glyph unicode="+" horiz-adv-x="874" d="M109 764v219h219v219h219v-219h217v-219h-217v-217h-219v217h-219z" />
<glyph unicode="," horiz-adv-x="436" d="M66 -219l43 438h219l-154 -438h-108z" />
<glyph unicode="-" horiz-adv-x="655" d="M109 764v219h438v-219h-438z" />
<glyph unicode="." horiz-adv-x="436" d="M109 0v219h219v-219h-219z" />
<glyph unicode="/" d="M109 0l327 1638h219l-327 -1638h-219z" />
<glyph unicode="0" d="M109 164v1311q0 68 48 115.5t115 47.5h220q68 0 115.5 -48t47.5 -115v-1311q0 -68 -48 -116t-115 -48h-220q-68 0 -115.5 48t-47.5 116zM328 272q0 -53 55 -53q53 0 53 53v1094q0 55 -53 55q-55 0 -55 -55v-1094z" />
<glyph unicode="1" horiz-adv-x="655" d="M109 0v219h110v1202h-110v217h327v-1419h111v-219h-438z" />
<glyph unicode="2" d="M109 0v819q0 68 48 116t115 48h111q53 0 53 55v328q0 55 -53 55h-274v217h383q68 0 115.5 -48t47.5 -115v-547q0 -68 -48 -116t-115 -48h-109q-55 0 -55 -53v-492h327v-219h-546z" />
<glyph unicode="3" horiz-adv-x="655" d="M109 0v219h163q55 0 56 53v439q0 53 -56 53h-163v219h163q55 0 56 55v328q0 55 -56 55h-163v217h274q68 0 116 -48t48 -115v-459q0 -94 -82 -142q82 -47 82 -143v-567q0 -68 -48 -116t-116 -48h-274z" />
<glyph unicode="4" horiz-adv-x="851" d="M23 436v219l436 983h219v-983h108v-219h-108v-436h-219v436h-436zM240 655h219v492z" />
<glyph unicode="5" d="M109 0v219h274q53 0 53 53v439q0 53 -53 53h-274v874h546v-217h-327v-438h164q68 0 115.5 -48t47.5 -116v-655q0 -68 -48 -116t-115 -48h-383z" />
<glyph unicode="6" d="M109 164v1311q0 68 48 115.5t115 47.5h383v-217h-272q-55 0 -55 -55v-438q0 70 48 118t116 48t115.5 -48.5t47.5 -117.5v-764q0 -68 -48 -116t-115 -48h-220q-68 0 -115.5 48t-47.5 116zM328 272q0 -53 55 -53q53 0 53 53v547q0 55 -53 55q-55 0 -55 -55v-547z" />
<glyph unicode="7" horiz-adv-x="720" d="M66 1421v217h546v-436q-145 -500 -178 -643q-43 -174 -43 -309v-250h-217v250q0 135 43 307q14 61 176 645v219h-327z" />
<glyph unicode="8" d="M109 164v557q0 113 106 153q-106 41 -106 152v449q0 68 48 115.5t115 47.5h220q68 0 115.5 -48t47.5 -115v-449q0 -111 -104 -152q104 -41 104 -153v-557q0 -68 -48 -116t-115 -48h-220q-68 0 -115.5 48t-47.5 116zM328 272q0 -53 55 -53q53 0 53 53v439q0 53 -53 53 q-55 0 -55 -53v-439zM328 1038q0 -55 55 -55q53 0 53 55v328q0 55 -53 55q-55 0 -55 -55v-328z" />
<glyph unicode="9" d="M109 0v219h274q53 0 53 53v439q0 -68 -47 -116t-117 -48q-68 0 -115.5 48t-47.5 116v764q0 68 48 115.5t115 47.5h220q68 0 115.5 -48t47.5 -115v-1311q0 -68 -48 -116t-115 -48h-383zM328 819q0 -55 55 -55q53 0 53 55v547q0 55 -53 55q-55 0 -55 -55v-547z" />
<glyph unicode=":" horiz-adv-x="436" d="M109 0v219h219v-219h-219zM109 764v219h219v-219h-219z" />
<glyph unicode=";" horiz-adv-x="436" d="M66 -219l43 438h219l-154 -438h-108zM109 764v219h219v-219h-219z" />
<glyph unicode="&#x3c;" d="M109 786v175l546 241v-219l-303 -109l303 -110v-217z" />
<glyph unicode="=" horiz-adv-x="655" d="M109 547v217h438v-217h-438zM109 983v219h438v-219h-438z" />
<glyph unicode="&#x3e;" d="M109 547v217l305 110l-305 109v219l546 -241v-175z" />
<glyph unicode="?" horiz-adv-x="720" d="M66 1421v217h383q68 0 115.5 -48t47.5 -115v-273l-219 -766v-108h-219v108l219 766v164q0 55 -55 55h-272zM174 0v219h219v-219h-219z" />
<glyph unicode="@" horiz-adv-x="1421" d="M109 109v1366q0 68 48 115.5t115 47.5h875q68 0 116 -48t48 -115v-1203q0 -68 -48.5 -115.5t-115.5 -47.5h-219q-68 0 -116 48t-48 115v-20q0 -68 -47 -116t-117 -48q-68 0 -116 48t-48 116v459q0 68 48 115.5t116 47.5h164v164q0 55 -53 56h-164v217h272q68 0 116 -48.5 t48 -115.5v-764q0 -55 55 -55t56 55v983q0 55 -56 55h-655q-55 0 -55 -55v-1257h-219zM655 360q0 -55 56 -55q53 0 53 55v295h-53q-55 0 -56 -55v-240z" />
<glyph unicode="A" horiz-adv-x="808" d="M23 0l262 1638h239l262 -1638h-219l-57 436h-211l-59 -436h-217zM328 655h153l-73 525l-5 65l-2 -65z" />
<glyph unicode="B" d="M109 0v1638h383q68 0 115.5 -48t47.5 -115v-437q0 -68 -48 -116t-115 -48q68 0 115.5 -48t47.5 -115v-547q0 -68 -48 -116t-115 -48h-383zM328 219h55q53 0 53 53v439q0 53 -53 53h-55v-545zM328 983h55q53 0 53 55v328q0 55 -53 55h-55v-438z" />
<glyph unicode="C" horiz-adv-x="612" d="M109 164v1311q0 68 48 115.5t115 47.5h275v-217h-164q-55 0 -55 -55v-1094q0 -53 55 -53h164v-219h-275q-68 0 -115.5 48t-47.5 116z" />
<glyph unicode="D" d="M109 0v1638h383q68 0 115.5 -48t47.5 -115v-1311q0 -68 -48 -116t-115 -48h-383zM328 219h55q53 0 53 53v1094q0 55 -53 55h-55v-1202z" />
<glyph unicode="E" horiz-adv-x="612" d="M109 0v1638h438v-217h-219v-438h219v-219h-219v-545h219v-219h-438z" />
<glyph unicode="F" horiz-adv-x="600" d="M109 0v1638h438v-217h-219v-438h219v-219h-219v-764h-219z" />
<glyph unicode="G" d="M109 164v1311q0 68 48 115.5t115 47.5h383v-217h-272q-55 0 -55 -55v-1094q0 -53 55 -53h53v545h-53v219h272v-983h-219v164q0 -68 -47 -116t-117 -48q-68 0 -115.5 48t-47.5 116z" />
<glyph unicode="H" d="M109 0v1638h219v-655h108v655h219v-1638h-219v764h-108v-764h-219z" />
<glyph unicode="I" horiz-adv-x="436" d="M109 0v1638h219v-1638h-219z" />
<glyph unicode="J" horiz-adv-x="567" d="M23 0v219h163q53 0 54 53v1366h219v-1474q0 -68 -48.5 -116t-115.5 -48h-272z" />
<glyph unicode="K" horiz-adv-x="786" d="M109 0v1638h219v-600l219 600h217l-285 -782l285 -856h-217l-180 541l-39 -105v-436h-219z" />
<glyph unicode="L" horiz-adv-x="567" d="M109 0v1638h219v-1419h219v-219h-438z" />
<glyph unicode="M" horiz-adv-x="1093" d="M109 0v1638h196l242 -1007l239 1007h197v-1638h-219v895l-197 -895h-43l-196 895v-895h-219z" />
<glyph unicode="N" horiz-adv-x="874" d="M109 0v1638h176l262 -893v893h217v-1638h-174l-262 895v-895h-219z" />
<glyph unicode="O" d="M109 164v1311q0 68 48 115.5t115 47.5h220q68 0 115.5 -48t47.5 -115v-1311q0 -68 -48 -116t-115 -48h-220q-68 0 -115.5 48t-47.5 116zM328 272q0 -53 55 -53q53 0 53 53v1094q0 55 -53 55q-55 0 -55 -55v-1094z" />
<glyph unicode="P" horiz-adv-x="720" d="M109 0v1638h383q68 0 115.5 -48t47.5 -115v-656q0 -68 -48 -116t-115 -48h-164v-655h-219zM328 874h55q53 1 53 54v438q0 55 -53 55h-55v-547z" />
<glyph unicode="Q" d="M109 164v1311q0 68 48 115.5t115 47.5h220q68 0 115.5 -48t47.5 -115v-1311q0 -68 -48 -116t-115 -48v-55q0 -53 55 -54h53v-219h-164q-68 0 -116 48.5t-48 115.5v164q-68 0 -115.5 48t-47.5 116zM328 272q0 -53 55 -53q53 0 53 53v1094q0 55 -53 55q-55 0 -55 -55v-1094 z" />
<glyph unicode="R" d="M109 0v1638h383q68 0 115.5 -48t47.5 -115v-656q0 -90 -75 -137l118 -682h-217l-114 655h-39v-655h-219zM328 874h55q53 1 53 54v438q0 55 -53 55h-55v-547z" />
<glyph unicode="S" horiz-adv-x="677" d="M66 0v219h272q55 0 55 53v439q0 53 -55 53h-109q-68 0 -115.5 48t-47.5 116v547q0 68 48 115.5t115 47.5h383v-217h-274q-53 0 -53 -55v-328q0 -55 53 -55h111q68 0 115.5 -48t47.5 -116v-655q0 -68 -48 -116t-115 -48h-383z" />
<glyph unicode="T" horiz-adv-x="696" d="M20 1421v217h656v-217h-219v-1421h-217v1421h-220z" />
<glyph unicode="U" d="M109 164v1474h219v-1366q0 -53 55 -53q53 0 53 53v1366h219v-1474q0 -68 -48 -116t-115 -48h-220q-68 0 -115.5 48t-47.5 116z" />
<glyph unicode="V" horiz-adv-x="808" d="M23 1638h217l163 -1228l164 1228h219l-262 -1638h-239z" />
<glyph unicode="W" horiz-adv-x="1136" d="M23 1638h217l98 -1034l164 1034h131l166 -1034l96 1034h219l-174 -1638h-197l-176 1026l-174 -1026h-196z" />
<glyph unicode="X" horiz-adv-x="698" d="M23 0l217 819l-217 819h217l110 -409l109 409h219l-219 -819l219 -819h-219l-109 410l-110 -410h-217z" />
<glyph unicode="Y" horiz-adv-x="698" d="M23 1638h217l102 -612l8 -86l6 88l103 610h219l-219 -983v-655h-219v655z" />
<glyph unicode="Z" horiz-adv-x="589" d="M23 0l282 1421h-282v217h544l-282 -1419h282v-219h-544z" />
<glyph unicode="[" horiz-adv-x="546" d="M109 -219v2077h327v-220h-108v-1638h108v-219h-327z" />
<glyph unicode="\" d="M109 1638h219l327 -1638h-219z" />
<glyph unicode="]" horiz-adv-x="546" d="M109 0h110v1638h-110v220h327v-2077h-327v219z" />
<glyph unicode="^" horiz-adv-x="874" d="M109 1311l219 327h219l217 -327h-174l-154 192l-151 -192h-176z" />
<glyph unicode="_" d="M109 0v219h546v-219h-546z" />
<glyph unicode="`" horiz-adv-x="436" d="M66 1638h219l151 -436h-86z" />
<glyph unicode="a" horiz-adv-x="743" d="M88 141v459q0 70 48 117t116 47h164v164q0 55 -56 55h-163v219h272q70 0 117 -48t47 -116v-1038h-217v141q0 -68 -48.5 -116t-115.5 -48q-68 0 -116 48.5t-48 115.5zM305 252q0 -55 55 -55q56 0 56 55v295h-56q-55 0 -55 -55v-240z" />
<glyph unicode="b" d="M109 0v1638h219v-579q0 70 48 118t116 48t115.5 -48.5t47.5 -117.5v-918q0 -68 -48 -116t-115 -48q-68 0 -116 48.5t-48 115.5v-141h-219zM328 252q0 -55 55 -55q53 0 53 55v698q0 55 -53 56q-55 0 -55 -56v-698z" />
<glyph unicode="c" horiz-adv-x="622" d="M109 164v874q0 68 48 116t115 48h275v-219h-164q-55 0 -55 -55v-656q0 -53 55 -53h164v-219h-275q-68 0 -115.5 48t-47.5 116z" />
<glyph unicode="d" d="M109 141v918q0 70 48 118t115 48q70 0 117 -48.5t47 -117.5v579h219v-1638h-219v141q0 -68 -47 -116t-117 -48q-68 0 -115.5 48.5t-47.5 115.5zM328 252q0 -55 55 -55q53 0 53 55v698q0 55 -53 56q-55 0 -55 -56v-698z" />
<glyph unicode="e" d="M109 164v874q0 68 48 116t115 48h220q68 0 115.5 -48t47.5 -116v-602h-327v-164q0 -53 55 -53h272v-219h-383q-68 0 -115.5 48t-47.5 116zM328 655h108v273q0 55 -53 55q-55 0 -55 -55v-273z" />
<glyph unicode="f" horiz-adv-x="546" d="M55 983v219h109v273q0 68 48 115.5t116 47.5h164v-217h-56q-53 0 -53 -55v-164h109v-219h-109v-983h-219v983h-109z" />
<glyph unicode="g" d="M109 141v918q0 70 48 118t115 48q70 0 117 -48.5t47 -117.5v143h219v-1474q0 -70 -48 -117t-115 -47h-383v217h274q53 0 53 55v305q0 -68 -47 -116t-117 -48q-68 0 -115.5 48.5t-47.5 115.5zM328 252q0 -55 55 -55q53 0 53 55v698q0 55 -53 56q-55 0 -55 -56v-698z" />
<glyph unicode="h" d="M109 0v1638h219v-579q0 70 48 118t116 48t115.5 -48.5t47.5 -117.5v-1059h-219v950q0 55 -53 56q-55 0 -55 -56v-950h-219z" />
<glyph unicode="i" horiz-adv-x="491" d="M55 983v219h328v-1202h-219v983h-109zM164 1421v217h219v-217h-219z" />
<glyph unicode="j" horiz-adv-x="436" d="M-109 -219h164q53 0 54 55v1366h219v-1474q0 -70 -48.5 -117t-115.5 -47h-273v217zM109 1421v217h219v-217h-219z" />
<glyph unicode="k" horiz-adv-x="819" d="M109 0v1638h219v-852l204 416h232l-252 -506l252 -696h-217l-162 442l-57 -114v-328h-219z" />
<glyph unicode="l" horiz-adv-x="436" d="M0 1421v217h328v-1638h-219v1421h-109z" />
<glyph unicode="m" horiz-adv-x="1048" d="M88 0v1202h217v-143q0 70 48 118t116 48q70 0 117 -48.5t47 -117.5q0 70 48 118t116 48q70 0 117 -48.5t47 -117.5v-1059h-218v950q0 55 -55 56q-55 0 -55 -56v-950h-217v950q0 55 -56 56q-55 0 -55 -56v-950h-217z" />
<glyph unicode="n" d="M109 0v1202h219v-143q0 70 48 118t116 48t115.5 -48.5t47.5 -117.5v-1059h-219v950q0 55 -53 56q-55 0 -55 -56v-950h-219z" />
<glyph unicode="o" d="M109 164v874q0 68 48 116t115 48h220q68 0 115.5 -48t47.5 -116v-874q0 -68 -48 -116t-115 -48h-220q-68 0 -115.5 48t-47.5 116zM328 272q0 -53 55 -53q53 0 53 53v656q0 55 -53 55q-55 0 -55 -55v-656z" />
<glyph unicode="p" d="M109 -436v1638h219v-143q0 70 48 118t116 48t115.5 -48.5t47.5 -117.5v-918q0 -68 -48 -116t-115 -48q-68 0 -116 48.5t-48 115.5v-577h-219zM328 252q0 -55 55 -55q53 0 53 55v698q0 55 -53 56q-55 0 -55 -56v-698z" />
<glyph unicode="q" d="M109 141v918q0 70 48 118t115 48q70 0 117 -48.5t47 -117.5v143h219v-1638h-219v577q0 -68 -47 -116t-117 -48q-68 0 -115.5 48.5t-47.5 115.5zM328 252q0 -55 55 -55q53 0 53 55v698q0 55 -53 56q-55 0 -55 -56v-698z" />
<glyph unicode="r" horiz-adv-x="567" d="M109 0v1202h219v-164q0 68 48 116t116 48h55v-219h-164q-55 0 -55 -55v-928h-219z" />
<glyph unicode="s" d="M109 0v219h274q53 0 53 53v220q0 55 -53 55h-111q-68 0 -115.5 48t-47.5 116v327q0 68 48 116t115 48h383v-219h-272q-55 0 -55 -55v-109q0 -55 55 -55h109q68 0 115.5 -47t47.5 -117v-436q0 -68 -48 -116t-115 -48h-383z" />
<glyph unicode="t" horiz-adv-x="589" d="M66 983v219h108v328h219v-328h109v-219h-109v-711q0 -53 56 -53h53v-219h-164q-68 0 -116 48t-48 116v819h-108z" />
<glyph unicode="u" d="M109 141v1061h219v-950q0 -55 55 -55q53 0 53 55v950h219v-1202h-219v141q0 -68 -47 -116t-117 -48q-68 0 -115.5 48.5t-47.5 115.5z" />
<glyph unicode="v" horiz-adv-x="698" d="M23 1202h217l110 -751l109 751h219l-197 -1202h-262z" />
<glyph unicode="w" horiz-adv-x="1136" d="M23 1202h217l108 -735l133 735h174l133 -735l107 735h219l-174 -1202h-219l-154 764l-151 -764h-219z" />
<glyph unicode="x" horiz-adv-x="698" d="M23 0l217 600l-217 602h217l110 -301l109 301h219l-219 -602l219 -600h-219l-109 301l-110 -301h-217z" />
<glyph unicode="y" d="M109 141v1061h219v-950q0 -55 55 -55q53 0 53 55v950h219v-1474q0 -70 -48 -117t-115 -47h-383v217h274q53 0 53 55v305q0 -68 -47 -116t-117 -48q-68 0 -115.5 48.5t-47.5 115.5z" />
<glyph unicode="z" horiz-adv-x="589" d="M23 0l268 983h-268v219h544l-268 -983h268v-219h-544z" />
<glyph unicode="{" horiz-adv-x="655" d="M109 819v219q68 0 115.5 48.5t47.5 115.5v492q0 68 48.5 116t115.5 48h164v-220h-53q-55 0 -55 -53v-491q0 -70 -48.5 -118t-115.5 -48q68 0 116 -47t48 -117v-709q0 -55 55 -55h53v-219h-164q-68 0 -116 48t-48 116v710q0 68 -48 116t-115 48z" />
<glyph unicode="|" horiz-adv-x="436" d="M109 0v1638h219v-1638h-219z" />
<glyph unicode="}" horiz-adv-x="655" d="M55 0h54q55 0 55 55v709q0 70 48 117t116 47q-68 0 -116 48t-48 118v491q0 53 -55 53h-54v220h164q68 0 116 -48.5t48 -115.5v-492q0 -68 48 -116t116 -48v-219q-68 0 -116 -48t-48 -116v-710q0 -68 -48 -116t-116 -48h-164v219z" />
<glyph unicode="~" horiz-adv-x="874" d="M109 874q0 113 60 176.5t167 63.5q55 0 128 -38t99 -38q92 0 92 76h109q0 -113 -59.5 -176.5t-165.5 -63.5q-57 0 -130 38t-100 38q-90 0 -90 -76h-110z" />
<glyph unicode="&#xa1;" horiz-adv-x="436" d="M109 -219v1311h219v-1311h-219zM109 1202v219h219v-219h-219z" />
<glyph unicode="&#xa2;" d="M109 383v983q0 68 48 116t115 48h56v108h219v-108h108v-219h-272q-55 0 -55 -54v-765q0 -55 55 -56h272v-217h-108v-219h-219v219h-56q-68 0 -115.5 48t-47.5 116z" />
<glyph unicode="&#xa3;" horiz-adv-x="655" d="M0 0v219h109v545h-109v219h109v492q0 68 48 115.5t115 47.5h275v-217h-164q-55 0 -55 -55v-383h219v-219h-219v-545h219v-219h-547z" />
<glyph unicode="&#xa4;" horiz-adv-x="655" d="M0 547v217h109v219h-109v219h109v273q0 68 48 115.5t115 47.5h275v-217h-164q-55 0 -55 -55v-164h219v-219h-219v-219h219v-217h-219v-275q0 -53 55 -53h164v-219h-275q-68 0 -115.5 48t-47.5 116v383h-109z" />
<glyph unicode="&#xa5;" horiz-adv-x="874" d="M109 436v219h219l-219 983h219l108 -743l8 88l103 655h217l-217 -983h217v-219h-217v-436h-219v436h-219z" />
<glyph unicode="&#xa6;" horiz-adv-x="436" d="M109 0v1638h219v-1638h-219z" />
<glyph unicode="&#xa7;" d="M109 0v219h274q53 0 53 53v177q0 53 -53 53h-111q-68 0 -115.5 48t-47.5 116v110q0 68 48 116t115 48q-68 0 -115.5 48t-47.5 116v371q0 68 48 115.5t115 47.5h383v-217h-272q-55 0 -55 -55v-154q0 -53 55 -53h109q68 0 115.5 -48t47.5 -118v-108q0 -68 -48 -116 t-115 -48q68 0 115.5 -48t47.5 -116v-393q0 -68 -48 -116t-115 -48h-383zM328 776q0 -55 55 -55h53v164q0 55 -53 55h-55v-164z" />
<glyph unicode="&#xa8;" d="M109 1421v217h219v-217h-219zM436 1421v217h219v-217h-219z" />
<glyph unicode="&#xa9;" horiz-adv-x="1529" d="M109 983q0 272 192.5 463.5t462.5 191.5q272 0 464.5 -191.5t192.5 -463.5q0 -270 -192.5 -462.5t-464.5 -192.5q-270 0 -462.5 192.5t-192.5 462.5zM219 983q0 -225 160 -386t385 -161q227 0 387 161t160 386q0 227 -160 387t-387 160q-225 0 -385 -160t-160 -387z M547 874v220q0 90 63.5 153.5t153.5 63.5q92 0 155.5 -63.5t63.5 -153.5h-109q0 45 -31.5 76.5t-78.5 31.5q-45 0 -77 -31.5t-32 -76.5v-220q0 -45 32 -77.5t77 -32.5q47 0 78.5 31.5t31.5 78.5h109q0 -92 -63.5 -155.5t-155.5 -63.5q-90 0 -153.5 64.5t-63.5 154.5z" />
<glyph unicode="&#xaa;" d="M109 580v458q0 68 48 116t115 48h164v164q0 55 -53 55h-164v217h273q68 0 115.5 -48t47.5 -115v-1039h-219v144q0 -68 -47 -116t-117 -48q-68 0 -115.5 48t-47.5 116zM328 688q0 -55 55 -55q53 0 53 55v295h-53q-55 0 -55 -55v-240z" />
<glyph unicode="&#xab;" horiz-adv-x="1093" d="M109 764v219l546 438v-219l-409 -328l409 -327v-219zM436 786v175l547 241v-196l-326 -132l326 -131v-196z" />
<glyph unicode="&#xac;" horiz-adv-x="1093" d="M109 547v436h874v-219h-655v-217h-219z" />
<glyph unicode="&#xad;" horiz-adv-x="655" d="M109 764v219h438v-219h-438z" />
<glyph unicode="&#xae;" horiz-adv-x="1529" d="M109 983q0 272 192.5 463.5t462.5 191.5q272 0 464.5 -191.5t192.5 -463.5q0 -270 -192.5 -462.5t-464.5 -192.5q-270 0 -462.5 192.5t-192.5 462.5zM219 983q0 -225 160 -386t385 -161q227 0 387 161t160 386q0 227 -160 387t-387 160q-225 0 -385 -160t-160 -387z M547 655v656h217q92 0 155.5 -63.5t63.5 -155.5q0 -109 -88 -174l88 -263h-117l-73 222q-14 -2 -29 -3h-109v-219h-108zM655 983h109q47 0 78.5 32t31.5 77q0 47 -31.5 78.5t-78.5 31.5h-109v-219z" />
<glyph unicode="&#xaf;" d="M109 1421v217h546v-217h-546z" />
<glyph unicode="&#xb0;" horiz-adv-x="1093" d="M109 1454v43q0 68 48 116t115 48q70 0 117 -48t47 -116v-43q0 -70 -47 -117t-117 -47q-68 0 -115.5 47t-47.5 117zM219 1454q0 -55 53 -55q56 0 56 55v43q0 55 -56 55q-53 0 -53 -55v-43z" />
<glyph unicode="&#xb1;" horiz-adv-x="874" d="M109 0v219h655v-219h-655zM109 764v219h219v219h219v-219h217v-219h-217v-217h-219v217h-219z" />
<glyph unicode="&#xb4;" horiz-adv-x="436" d="M66 1202l153 436h217l-282 -436h-88z" />
<glyph unicode="&#xb6;" horiz-adv-x="1093" d="M109 1038v437q0 68 48 115.5t115 47.5h822v-217h-111v-1421h-219v1421h-109v-1421h-219v874h-164q-68 0 -115.5 48.5t-47.5 115.5zM328 1147q0 -53 55 -53h53v327h-53q-55 0 -55 -55v-219z" />
<glyph unicode="&#xb7;" horiz-adv-x="436" d="M109 764v219h219v-219h-219z" />
<glyph unicode="&#xb8;" horiz-adv-x="546" d="M88 -262l21 262h110l-8 -96q27 8 41 8q68 0 116 -48t48 -116v-131q0 -68 -48.5 -116t-115.5 -48q-68 0 -116 48t-48 116v12h109v-12q0 -53 55 -53q53 0 53 53v131q0 55 -53 55q-55 0 -55 -55v-10h-109z" />
<glyph unicode="&#xb9;" d="M109 0v1475q0 68 48 115.5t115 47.5h547q68 0 116 -48t48 -115v-1475h-219v1366q0 55 -53 55q-55 0 -56 -55v-1366h-219v1366q0 55 -53 55q-55 0 -55 -55v-1366h-219z" />
<glyph unicode="&#xba;" d="M109 600v875q0 68 48 115.5t115 47.5h220q68 0 115.5 -48t47.5 -115v-875q0 -68 -48 -116t-115 -48h-220q-68 0 -115.5 48t-47.5 116zM328 711q0 -55 55 -56q53 1 53 56v655q0 55 -53 55q-55 0 -55 -55v-655z" />
<glyph unicode="&#xbb;" horiz-adv-x="1093" d="M109 547v196l325 131l-325 132v196l546 -241v-175zM436 328v219l410 327l-410 328v219l547 -438v-219z" />
<glyph unicode="&#xbc;" d="M109 164v557q0 113 106 153q-106 41 -106 152v449q0 68 48 115.5t115 47.5h220q68 0 115.5 -48t47.5 -115v-449q0 -111 -104 -152q104 -41 104 -153v-557q0 -68 -48 -116t-115 -48h-220q-68 0 -115.5 48t-47.5 116zM328 272q0 -53 55 -53q53 0 53 53v439q0 53 -53 53 q-55 0 -55 -53v-439zM328 1038q0 -55 55 -55q53 0 53 55v328q0 55 -53 55q-55 0 -55 -55v-328z" />
<glyph unicode="&#xbd;" horiz-adv-x="655" d="M109 164v1311q0 68 48 115.5t115 47.5h275v-217h-164q-55 0 -55 -55v-383h219v-219h-219v-492q0 -53 55 -53h164v-219h-275q-68 0 -115.5 48t-47.5 116z" />
<glyph unicode="&#xbe;" horiz-adv-x="2185" d="M109 764v110q0 90 64.5 155t154.5 65h219v-111q0 -90 -64.5 -154.5t-154.5 -64.5h-219zM219 874h109q45 0 76.5 32t31.5 77h-108q-45 0 -77 -31.5t-32 -77.5z" />
<glyph unicode="&#xbf;" d="M154 -55v274l217 764v109h219v-109l-219 -764v-164q0 -55 55 -55h272v-219h-381q-68 0 -115.5 48t-47.5 116zM371 1202v219h219v-219h-219z" />
<glyph unicode="&#xc0;" horiz-adv-x="808" d="M23 0l262 1638h239l262 -1638h-219l-57 436h-211l-59 -436h-217zM132 2185h219l151 -436h-86zM328 655h153l-73 525l-5 65l-2 -65z" />
<glyph unicode="&#xc1;" horiz-adv-x="808" d="M23 0l262 1638h239l262 -1638h-219l-57 436h-211l-59 -436h-217zM285 1749l153 436h217l-282 -436h-88zM328 655h153l-73 525l-5 65l-2 -65z" />
<glyph unicode="&#xc2;" horiz-adv-x="808" d="M23 0l262 1638h239l262 -1638h-219l-57 436h-211l-59 -436h-217zM66 1747l219 327h219l217 -327h-174l-154 192l-151 -192h-176zM328 655h153l-73 525l-5 65l-2 -65z" />
<glyph unicode="&#xc3;" horiz-adv-x="808" d="M23 0l262 1638h239l262 -1638h-219l-57 436h-211l-59 -436h-217zM109 1749q0 113 60 176.5t167 63.5q55 0 128 -38t99 -38q92 0 92 76h109q0 -113 -59.5 -176.5t-165.5 -63.5q-57 0 -130 37t-100 37q-90 0 -90 -74h-110zM328 655h153l-73 525l-5 65l-2 -65z" />
<glyph unicode="&#xc4;" horiz-adv-x="808" d="M23 0l262 1638h239l262 -1638h-219l-57 436h-211l-59 -436h-217zM109 1749v217h219v-217h-219zM328 655h153l-73 525l-5 65l-2 -65zM436 1749v217h219v-217h-219z" />
<glyph unicode="&#xc5;" horiz-adv-x="808" d="M23 0l262 1638h239l262 -1638h-219l-57 436h-211l-59 -436h-217zM185 1857q0 90 64.5 153.5t154.5 63.5t154.5 -63.5t64.5 -153.5q0 -92 -64.5 -155.5t-154.5 -63.5t-154.5 63.5t-64.5 155.5zM295 1857q0 -47 32 -78.5t77 -31.5t76.5 31.5t31.5 78.5q0 45 -31.5 77 t-76.5 32t-77 -32t-32 -77zM328 655h153l-73 525l-5 65l-2 -65z" />
<glyph unicode="&#xc6;" d="M0 0l262 1638h557v-217h-219v-438h219v-219h-219v-545h219v-219h-436v436h-107l-57 -436h-219zM305 655h78l-4 525z" />
<glyph unicode="&#xc7;" horiz-adv-x="612" d="M109 164v1311q0 68 48 115.5t115 47.5h275v-217h-164q-55 0 -55 -55v-1094q0 -53 55 -53h164v-219h-275q-68 0 -115.5 48t-47.5 116zM262 -262l21 262h110l-8 -96q27 8 41 8q68 0 116 -48t48 -116v-131q0 -68 -48.5 -116t-115.5 -48q-68 0 -116 48t-48 116v12h109v-12 q0 -53 55 -53q53 0 53 53v131q0 55 -53 55q-55 0 -55 -55v-10h-109z" />
<glyph unicode="&#xc8;" horiz-adv-x="612" d="M109 0v1638h438v-217h-219v-438h219v-219h-219v-545h219v-219h-438zM109 2185h219l151 -436h-86z" />
<glyph unicode="&#xc9;" horiz-adv-x="612" d="M109 0v1638h438v-217h-219v-438h219v-219h-219v-545h219v-219h-438zM109 1749l153 436h217l-282 -436h-88z" />
<glyph unicode="&#xca;" horiz-adv-x="612" d="M0 1747l219 327h219l217 -327h-174l-154 192l-151 -192h-176zM109 0v1638h438v-217h-219v-438h219v-219h-219v-545h219v-219h-438z" />
<glyph unicode="&#xcb;" horiz-adv-x="612" d="M109 0v1638h438v-217h-219v-438h219v-219h-219v-545h219v-219h-438zM109 1749v217h219v-217h-219zM436 1749v217h219v-217h-219z" />
<glyph unicode="&#xcc;" horiz-adv-x="436" d="M-43 2185h219l151 -436h-86zM109 0v1638h219v-1638h-219z" />
<glyph unicode="&#xcd;" horiz-adv-x="436" d="M109 0v1638h219v-1638h-219zM109 1749l153 436h217l-282 -436h-88z" />
<glyph unicode="&#xce;" horiz-adv-x="436" d="M-110 1747l219 327h219l217 -327h-174l-154 192l-151 -192h-176zM109 0v1638h219v-1638h-219z" />
<glyph unicode="&#xcf;" horiz-adv-x="436" d="M0 1749v217h219v-217h-219zM109 0v1638h219v-1638h-219zM327 1749v217h219v-217h-219z" />
<glyph unicode="&#xd1;" horiz-adv-x="874" d="M109 0v1638h176l262 -893v893h217v-1638h-174l-262 895v-895h-219zM109 1749q0 113 60 176.5t167 63.5q55 0 128 -38t99 -38q92 0 92 76h109q0 -113 -59.5 -176.5t-165.5 -63.5q-57 0 -130 37t-100 37q-90 0 -90 -74h-110z" />
<glyph unicode="&#xd2;" d="M109 164v1311q0 68 48 115.5t115 47.5h220q68 0 115.5 -48t47.5 -115v-1311q0 -68 -48 -116t-115 -48h-220q-68 0 -115.5 48t-47.5 116zM175 2185h219l151 -436h-86zM328 272q0 -53 55 -53q53 0 53 53v1094q0 55 -53 55q-55 0 -55 -55v-1094z" />
<glyph unicode="&#xd3;" d="M109 164v1311q0 68 48 115.5t115 47.5h220q68 0 115.5 -48t47.5 -115v-1311q0 -68 -48 -116t-115 -48h-220q-68 0 -115.5 48t-47.5 116zM220 1749l153 436h217l-282 -436h-88zM328 272q0 -53 55 -53q53 0 53 53v1094q0 55 -53 55q-55 0 -55 -55v-1094z" />
<glyph unicode="&#xd4;" d="M54 1747l219 327h219l217 -327h-174l-154 192l-151 -192h-176zM109 164v1311q0 68 48 115.5t115 47.5h220q68 0 115.5 -48t47.5 -115v-1311q0 -68 -48 -116t-115 -48h-220q-68 0 -115.5 48t-47.5 116zM328 272q0 -53 55 -53q53 0 53 53v1094q0 55 -53 55q-55 0 -55 -55 v-1094z" />
<glyph unicode="&#xd5;" d="M109 164v1311q0 68 48 115.5t115 47.5h220q68 0 115.5 -48t47.5 -115v-1311q0 -68 -48 -116t-115 -48h-220q-68 0 -115.5 48t-47.5 116zM109 1749q0 113 60 176.5t167 63.5q55 0 128 -38t99 -38q92 0 92 76h109q0 -113 -59.5 -176.5t-165.5 -63.5q-57 0 -130 37t-100 37 q-90 0 -90 -74h-110zM328 272q0 -53 55 -53q53 0 53 53v1094q0 55 -53 55q-55 0 -55 -55v-1094z" />
<glyph unicode="&#xd6;" d="M109 164v1311q0 68 48 115.5t115 47.5h220q68 0 115.5 -48t47.5 -115v-1311q0 -68 -48 -116t-115 -48h-220q-68 0 -115.5 48t-47.5 116zM109 1749v217h219v-217h-219zM328 272q0 -53 55 -53q53 0 53 53v1094q0 55 -53 55q-55 0 -55 -55v-1094zM436 1749v217h219v-217 h-219z" />
<glyph unicode="&#xd8;" d="M109 -109l41 166q-41 45 -41 107v1311q0 68 48 115.5t115 47.5h220q14 0 28 -2l27 113h108l-39 -168q39 -45 39 -106v-1311q0 -68 -48 -116t-115 -48h-220q-14 0 -26 2l-27 -111h-110zM328 272q0 -53 55 -53q53 0 53 53v1094q0 55 -53 55q-55 0 -55 -55v-1094z" />
<glyph unicode="&#xd9;" d="M109 164v1474h219v-1366q0 -53 55 -53q53 0 53 53v1366h219v-1474q0 -68 -48 -116t-115 -48h-220q-68 0 -115.5 48t-47.5 116zM175 2185h219l151 -436h-86z" />
<glyph unicode="&#xda;" d="M109 164v1474h219v-1366q0 -53 55 -53q53 0 53 53v1366h219v-1474q0 -68 -48 -116t-115 -48h-220q-68 0 -115.5 48t-47.5 116zM220 1749l153 436h217l-282 -436h-88z" />
<glyph unicode="&#xdb;" d="M54 1747l219 327h219l217 -327h-174l-154 192l-151 -192h-176zM109 164v1474h219v-1366q0 -53 55 -53q53 0 53 53v1366h219v-1474q0 -68 -48 -116t-115 -48h-220q-68 0 -115.5 48t-47.5 116z" />
<glyph unicode="&#xdc;" d="M109 164v1474h219v-1366q0 -53 55 -53q53 0 53 53v1366h219v-1474q0 -68 -48 -116t-115 -48h-220q-68 0 -115.5 48t-47.5 116zM109 1749v217h219v-217h-219zM436 1749v217h219v-217h-219z" />
<glyph unicode="&#xdf;" d="M109 -219v1694q0 68 48 115.5t115 47.5h220q68 0 115.5 -48t47.5 -115v-437q0 -68 -48 -116t-115 -48q68 0 115.5 -48t47.5 -115v-547q0 -68 -48 -116t-115 -48h-109v219q53 0 53 53v439q0 53 -53 53h-55v-983h-219zM328 983h55q53 0 53 55v328q0 55 -53 55 q-55 0 -55 -55v-383z" />
<glyph unicode="&#xe0;" d="M88 141v459q0 70 48 117t116 47h164v164q0 55 -56 55h-163v219h272q70 0 117 -48t47 -116v-1038h-217v141q0 -68 -48.5 -116t-115.5 -48q-68 0 -116 48.5t-48 115.5zM175 1747h219l151 -436h-86zM305 252q0 -55 55 -55q56 0 56 55v295h-56q-55 0 -55 -55v-240z" />
<glyph unicode="&#xe1;" d="M88 141v459q0 70 48 117t116 47h164v164q0 55 -56 55h-163v219h272q70 0 117 -48t47 -116v-1038h-217v141q0 -68 -48.5 -116t-115.5 -48q-68 0 -116 48.5t-48 115.5zM220 1311l153 436h217l-282 -436h-88zM305 252q0 -55 55 -55q56 0 56 55v295h-56q-55 0 -55 -55v-240z " />
<glyph unicode="&#xe2;" d="M66 1311l219 327h219l217 -327h-174l-154 192l-151 -192h-176zM88 141v459q0 70 48 117t116 47h164v164q0 55 -56 55h-163v219h272q70 0 117 -48t47 -116v-1038h-217v141q0 -68 -48.5 -116t-115.5 -48q-68 0 -116 48.5t-48 115.5zM305 252q0 -55 55 -55q56 0 56 55v295 h-56q-55 0 -55 -55v-240z" />
<glyph unicode="&#xe3;" d="M88 141v459q0 70 48 117t116 47h164v164q0 55 -56 55h-163v219h272q70 0 117 -48t47 -116v-1038h-217v141q0 -68 -48.5 -116t-115.5 -48q-68 0 -116 48.5t-48 115.5zM109 1421q0 113 60 176.5t167 63.5q55 0 128 -38t99 -38q92 0 92 76h109q0 -113 -59.5 -176.5 t-165.5 -63.5q-57 0 -130 37t-100 37q-90 0 -90 -74h-110zM305 252q0 -55 55 -55q56 0 56 55v295h-56q-55 0 -55 -55v-240z" />
<glyph unicode="&#xe4;" d="M88 141v459q0 70 48 117t116 47h164v164q0 55 -56 55h-163v219h272q70 0 117 -48t47 -116v-1038h-217v141q0 -68 -48.5 -116t-115.5 -48q-68 0 -116 48.5t-48 115.5zM109 1421v217h219v-217h-219zM305 252q0 -55 55 -55q56 0 56 55v295h-56q-55 0 -55 -55v-240zM436 1421 v217h219v-217h-219z" />
<glyph unicode="&#xe5;" d="M88 141v459q0 70 48 117t116 47h164v164q0 55 -56 55h-163v219h272q70 0 117 -48t47 -116v-1038h-217v141q0 -68 -48.5 -116t-115.5 -48q-68 0 -116 48.5t-48 115.5zM218 1421q0 90 64.5 153.5t154.5 63.5t154.5 -63.5t64.5 -153.5q0 -92 -64.5 -155.5t-154.5 -63.5 t-154.5 63.5t-64.5 155.5zM305 252q0 -55 55 -55q56 0 56 55v295h-56q-55 0 -55 -55v-240zM328 1421q0 -47 32 -78.5t77 -31.5t76.5 31.5t31.5 78.5q0 45 -31.5 77t-76.5 32t-77 -32t-32 -77z" />
<glyph unicode="&#xe6;" horiz-adv-x="1093" d="M109 141v459q0 70 48 117t115 47h164v164q0 55 -53 55h-164v219h230q41 0 75 -18q37 18 76 18h219q68 0 116 -48t48 -116v-491h-328v-275q0 -53 56 -53h272v-219h-383q-68 0 -116 48t-48 116v-23q0 -68 -47 -116t-117 -48q-68 0 -115.5 48.5t-47.5 115.5zM328 252 q0 -55 55 -55q53 0 53 55v295h-53q-55 0 -55 -55v-240zM655 764h109v164q0 55 -53 55q-55 0 -56 -55v-164z" />
<glyph unicode="&#xe7;" horiz-adv-x="612" d="M109 164v874q0 68 48 116t115 48h275v-219h-164q-55 0 -55 -55v-656q0 -53 55 -53h164v-219h-275q-68 0 -115.5 48t-47.5 116zM242 -262l21 262h110l-8 -96q27 8 41 8q68 0 116 -48t48 -116v-131q0 -68 -48.5 -116t-115.5 -48q-68 0 -116 48t-48 116v12h109v-12 q0 -53 55 -53q53 0 53 53v131q0 55 -53 55q-55 0 -55 -55v-10h-109z" />
<glyph unicode="&#xe8;" d="M109 164v874q0 68 48 116t115 48h220q68 0 115.5 -48t47.5 -116v-602h-327v-164q0 -53 55 -53h272v-219h-383q-68 0 -115.5 48t-47.5 116zM175 1747h219l151 -436h-86zM328 655h108v273q0 55 -53 55q-55 0 -55 -55v-273z" />
<glyph unicode="&#xe9;" d="M109 164v874q0 68 48 116t115 48h220q68 0 115.5 -48t47.5 -116v-602h-327v-164q0 -53 55 -53h272v-219h-383q-68 0 -115.5 48t-47.5 116zM220 1311l153 436h217l-282 -436h-88zM328 655h108v273q0 55 -53 55q-55 0 -55 -55v-273z" />
<glyph unicode="&#xea;" d="M66 1311l219 327h219l217 -327h-174l-154 192l-151 -192h-176zM109 164v874q0 68 48 116t115 48h220q68 0 115.5 -48t47.5 -116v-602h-327v-164q0 -53 55 -53h272v-219h-383q-68 0 -115.5 48t-47.5 116zM328 655h108v273q0 55 -53 55q-55 0 -55 -55v-273z" />
<glyph unicode="&#xeb;" d="M109 164v874q0 68 48 116t115 48h220q68 0 115.5 -48t47.5 -116v-602h-327v-164q0 -53 55 -53h272v-219h-383q-68 0 -115.5 48t-47.5 116zM109 1421v217h219v-217h-219zM328 655h108v273q0 55 -53 55q-55 0 -55 -55v-273zM436 1421v217h219v-217h-219z" />
<glyph unicode="&#xec;" horiz-adv-x="436" d="M0 1747h219l151 -436h-86zM55 983v219h328v-1202h-219v983h-109z" />
<glyph unicode="&#xed;" horiz-adv-x="436" d="M55 983v219h328v-1202h-219v983h-109zM66 1311l153 436h217l-282 -436h-88z" />
<glyph unicode="&#xee;" horiz-adv-x="436" d="M-65 1311l219 327h219l217 -327h-174l-154 192l-151 -192h-176zM55 983v219h328v-1202h-219v983h-109z" />
<glyph unicode="&#xef;" horiz-adv-x="436" d="M-45 1421v217h219v-217h-219zM55 983v219h328v-1202h-219v983h-109zM282 1421v217h219v-217h-219z" />
<glyph unicode="&#xf1;" d="M109 0v1202h219v-143q0 70 48 118t116 48t115.5 -48.5t47.5 -117.5v-1059h-219v950q0 55 -53 56q-55 0 -55 -56v-950h-219zM109 1421q0 113 60 176.5t167 63.5q55 0 128 -38t99 -38q92 0 92 76h109q0 -113 -59.5 -176.5t-165.5 -63.5q-57 0 -130 37t-100 37 q-90 0 -90 -74h-110z" />
<glyph unicode="&#xf2;" d="M109 164v874q0 68 48 116t115 48h220q68 0 115.5 -48t47.5 -116v-874q0 -68 -48 -116t-115 -48h-220q-68 0 -115.5 48t-47.5 116zM175 1747h219l151 -436h-86zM328 272q0 -53 55 -53q53 0 53 53v656q0 55 -53 55q-55 0 -55 -55v-656z" />
<glyph unicode="&#xf3;" d="M109 164v874q0 68 48 116t115 48h220q68 0 115.5 -48t47.5 -116v-874q0 -68 -48 -116t-115 -48h-220q-68 0 -115.5 48t-47.5 116zM220 1311l153 436h217l-282 -436h-88zM328 272q0 -53 55 -53q53 0 53 53v656q0 55 -53 55q-55 0 -55 -55v-656z" />
<glyph unicode="&#xf4;" d="M66 1311l219 327h219l217 -327h-174l-154 192l-151 -192h-176zM109 164v874q0 68 48 116t115 48h220q68 0 115.5 -48t47.5 -116v-874q0 -68 -48 -116t-115 -48h-220q-68 0 -115.5 48t-47.5 116zM328 272q0 -53 55 -53q53 0 53 53v656q0 55 -53 55q-55 0 -55 -55v-656z " />
<glyph unicode="&#xf5;" d="M109 164v874q0 68 48 116t115 48h220q68 0 115.5 -48t47.5 -116v-874q0 -68 -48 -116t-115 -48h-220q-68 0 -115.5 48t-47.5 116zM109 1421q0 113 60 176.5t167 63.5q55 0 128 -38t99 -38q92 0 92 76h109q0 -113 -59.5 -176.5t-165.5 -63.5q-57 0 -130 37t-100 37 q-90 0 -90 -74h-110zM328 272q0 -53 55 -53q53 0 53 53v656q0 55 -53 55q-55 0 -55 -55v-656z" />
<glyph unicode="&#xf6;" d="M109 164v874q0 68 48 116t115 48h220q68 0 115.5 -48t47.5 -116v-874q0 -68 -48 -116t-115 -48h-220q-68 0 -115.5 48t-47.5 116zM109 1421v217h219v-217h-219zM328 272q0 -53 55 -53q53 0 53 53v656q0 55 -53 55q-55 0 -55 -55v-656zM436 1421v217h219v-217h-219z" />
<glyph unicode="&#xf7;" horiz-adv-x="874" d="M109 764v219h655v-219h-655zM328 436v219h219v-219h-219zM328 1094v217h219v-217h-219z" />
<glyph unicode="&#xf8;" d="M109 -109l47 158q-47 49 -47 115v874q0 68 48 116t115 48h220l32 109h131l-47 -158q47 -49 47 -115v-874q0 -68 -48 -116t-115 -48h-220l-32 -109h-131zM328 272q0 -53 55 -53q53 0 53 53v656q0 55 -53 55q-55 0 -55 -55v-656z" />
<glyph unicode="&#xf9;" d="M109 141v1061h219v-950q0 -55 55 -55q53 0 53 55v950h219v-1202h-219v141q0 -68 -47 -116t-117 -48q-68 0 -115.5 48.5t-47.5 115.5zM175 1747h219l151 -436h-86z" />
<glyph unicode="&#xfa;" d="M109 141v1061h219v-950q0 -55 55 -55q53 0 53 55v950h219v-1202h-219v141q0 -68 -47 -116t-117 -48q-68 0 -115.5 48.5t-47.5 115.5zM220 1311l153 436h217l-282 -436h-88z" />
<glyph unicode="&#xfb;" d="M66 1311l219 327h219l217 -327h-174l-154 192l-151 -192h-176zM109 141v1061h219v-950q0 -55 55 -55q53 0 53 55v950h219v-1202h-219v141q0 -68 -47 -116t-117 -48q-68 0 -115.5 48.5t-47.5 115.5z" />
<glyph unicode="&#xfc;" d="M109 141v1061h219v-950q0 -55 55 -55q53 0 53 55v950h219v-1202h-219v141q0 -68 -47 -116t-117 -48q-68 0 -115.5 48.5t-47.5 115.5zM109 1421v217h219v-217h-219zM436 1421v217h219v-217h-219z" />
<glyph unicode="&#xff;" d="M109 141v1061h219v-950q0 -55 55 -55q53 0 53 55v950h219v-1474q0 -70 -48 -117t-115 -47h-383v217h274q53 0 53 55v305q0 -68 -47 -116t-117 -48q-68 0 -115.5 48.5t-47.5 115.5zM109 1421v217h219v-217h-219zM436 1421v217h219v-217h-219z" />
<glyph unicode="&#x152;" d="M109 164v1311q0 68 48 115.5t115 47.5h602v-217h-219v-438h219v-219h-219v-545h219v-219h-602q-68 0 -115.5 48t-47.5 116zM328 272q0 -53 55 -53q53 0 53 53v1094q0 55 -53 55q-55 0 -55 -55v-1094z" />
<glyph unicode="&#x153;" horiz-adv-x="1093" d="M109 164v874q0 68 48 116t115 48h220q10 0 29.5 -14t25.5 -17q6 2 24.5 16.5t28.5 14.5h219q68 0 116 -48t48 -116v-602h-328v-164q0 -53 56 -53h272v-219h-383q-10 0 -28.5 14.5t-24.5 16.5q-6 -2 -25.5 -16.5t-29.5 -14.5h-220q-68 0 -115.5 48t-47.5 116zM328 272 q0 -53 55 -53q53 0 53 53v656q0 55 -53 55q-55 0 -55 -55v-656zM655 655h109v273q0 55 -53 55q-55 0 -56 -55v-273z" />
<glyph unicode="&#x178;" horiz-adv-x="698" d="M23 1638h217l102 -612l8 -86l6 88l103 610h219l-219 -983v-655h-219v655zM66 1749v217h219v-217h-219zM393 1749v217h219v-217h-219z" />
<glyph unicode="&#x2c6;" horiz-adv-x="874" d="M109 1311l219 327h219l217 -327h-174l-154 192l-151 -192h-176z" />
<glyph unicode="&#x2dc;" horiz-adv-x="874" d="M109 1421q0 113 60 176.5t167 63.5q55 0 128 -38t99 -38q92 0 92 76h109q0 -113 -59.5 -176.5t-165.5 -63.5q-57 0 -130 37t-100 37q-90 0 -90 -74h-110z" />
<glyph unicode="&#x2000;" horiz-adv-x="1092" />
<glyph unicode="&#x2001;" horiz-adv-x="2185" />
<glyph unicode="&#x2002;" horiz-adv-x="1092" />
<glyph unicode="&#x2003;" horiz-adv-x="2185" />
<glyph unicode="&#x2004;" horiz-adv-x="728" />
<glyph unicode="&#x2005;" horiz-adv-x="546" />
<glyph unicode="&#x2006;" horiz-adv-x="364" />
<glyph unicode="&#x2007;" horiz-adv-x="364" />
<glyph unicode="&#x2008;" horiz-adv-x="273" />
<glyph unicode="&#x2009;" horiz-adv-x="437" />
<glyph unicode="&#x200a;" horiz-adv-x="121" />
<glyph unicode="&#x2010;" horiz-adv-x="655" d="M109 764v219h438v-219h-438z" />
<glyph unicode="&#x2011;" horiz-adv-x="655" d="M109 764v219h438v-219h-438z" />
<glyph unicode="&#x2012;" horiz-adv-x="655" d="M109 764v219h438v-219h-438z" />
<glyph unicode="&#x2013;" horiz-adv-x="655" d="M109 764v219h546v-219h-546z" />
<glyph unicode="&#x2014;" horiz-adv-x="655" d="M109 764v219h874v-219h-874z" />
<glyph unicode="&#x2018;" horiz-adv-x="436" d="M109 1202l176 436h86l-43 -436h-219z" />
<glyph unicode="&#x2019;" horiz-adv-x="436" d="M66 1202l43 436h219l-174 -436h-88z" />
<glyph unicode="&#x201a;" horiz-adv-x="436" d="M66 -219l43 438h219l-174 -438h-88z" />
<glyph unicode="&#x201c;" horiz-adv-x="436" d="M109 1202l176 436h86l-43 -436h-219zM436 1202l176 436h86l-43 -436h-219z" />
<glyph unicode="&#x201d;" horiz-adv-x="436" d="M66 1202l43 436h219l-174 -436h-88zM393 1202l43 436h219l-174 -436h-88z" />
<glyph unicode="&#x201e;" horiz-adv-x="436" d="M66 -219l43 438h219l-174 -438h-88zM393 -219l43 438h219l-174 -438h-88z" />
<glyph unicode="&#x2022;" horiz-adv-x="655" d="M109 874q0 90 64.5 155t154.5 65t154.5 -65t64.5 -155t-64.5 -154.5t-154.5 -64.5t-154.5 64.5t-64.5 154.5z" />
<glyph unicode="&#x2026;" horiz-adv-x="1310" d="M109 0v219h219v-219h-219zM547 0v219h217v-219h-217zM983 0v219h219v-219h-219z" />
<glyph unicode="&#x202f;" horiz-adv-x="437" />
<glyph unicode="&#x2039;" horiz-adv-x="1093" d="M109 764v219l546 438v-219l-409 -328l409 -327v-219z" />
<glyph unicode="&#x203a;" horiz-adv-x="1093" d="M436 328v219l410 327l-410 328v219l547 -438v-219z" />
<glyph unicode="&#x205f;" horiz-adv-x="546" />
<glyph unicode="&#x2122;" horiz-adv-x="1093" d="M109 1530v108h327v-108h-108v-436h-109v436h-110zM547 1094v544h108l131 -327l132 327h108v-544h-108v272l-109 -272h-45l-109 272v-272h-108z" />
<glyph unicode="&#x25fc;" horiz-adv-x="1198" d="M0 0v1198h1198v-1198h-1198z" />
</font>
</defs>
</svg>
